<svg xmlns="http://www.w3.org/2000/svg" viewBox="0 0 100 100" fill="none">
  <path d="M42 88 C40 76 39 66 41 58 C35 56 30 51 28 43 C26 35 28 27 33 21 C31 18 30 15 31 12 C36 12 40 14 43 18 C48 15 54 14 60 15 C68 16.5 74 21 78 28 C81 33 82 38 81 43 C85 44 88 47 89 51 C84 51 80 50 77 48 C75 53 71 57 66 60 C68 68 68 77 65 87" stroke="#7A3B1F" stroke-width="2.6" stroke-linecap="round" stroke-linejoin="round"/>
  <path d="M43 18 C41 24 41 30 44 35 C47 39 51 41 56 41" stroke="#7A3B1F" stroke-width="2.6" stroke-linecap="round" stroke-linejoin="round"/>
  <path d="M60 15 C57 21 57 28 61 34" stroke="#7A3B1F" stroke-width="2.6" stroke-linecap="round" stroke-linejoin="round"/>
  <circle cx="68" cy="33" r="1.9" fill="#7A3B1F"/>
  <path d="M33 21 C29 23 26 26 25 30" stroke="#7A3B1F" stroke-width="2.2" stroke-linecap="round" stroke-linejoin="round"/>
  <path d="M50 44 C46 46 41 47 36 46" stroke="#7A3B1F" stroke-width="2" stroke-linecap="round" stroke-linejoin="round"/>
</svg>
